<svg xmlns="http://www.w3.org/2000/svg" version="1.1" xmlns:xlink="http://www.w3.org/1999/xlink" width="1000" height="1000"><g clip-path="url(#SvgjsClipPath1678)"><rect width="1000" height="1000" fill="#753600"></rect><g transform="matrix(0.9765625,0,0,0.9765625,0,0)"><svg xmlns="http://www.w3.org/2000/svg" version="1.1" xmlns:xlink="http://www.w3.org/1999/xlink" width="1024" height="1024"><svg width="1024" height="1024" viewBox="0 0 1024 1024" version="1.1" id="svg3" sodipodi:docname="9b2689f9-9c37-475a-8be9-a169d13ee12b.svg" xmlns:inkscape="http://www.inkscape.org/namespaces/inkscape" xmlns:sodipodi="http://sodipodi.sourceforge.net/DTD/sodipodi-0.dtd" xmlns="http://www.w3.org/2000/svg" xmlns:svg="http://www.w3.org/2000/svg">
  <sodipodi:namedview id="namedview3" pagecolor="#ffffff" bordercolor="#000000" borderopacity="0.25" inkscape:showpageshadow="2" inkscape:pageopacity="0.0" inkscape:pagecheckerboard="0" inkscape:deskcolor="#d1d1d1"></sodipodi:namedview>
  <defs id="defs2">
    <linearGradient id="a" gradientUnits="userSpaceOnUse" x1="762.699" y1="786.981" x2="259.675" y2="235.268">
      <stop offset="0" stop-color="#FA8449" id="stop1"></stop>
      <stop offset="1" stop-color="#FFB056" id="stop2"></stop>
    </linearGradient>
  <clipPath id="SvgjsClipPath1678"><rect width="1000" height="1000" x="0" y="0" rx="400" ry="400"></rect></clipPath></defs>
  <path fill="url(#a)" d="M337.299 205.21c5.027-.738 13.601-.346 18.815-.343l34.233.066 105.966.056 129.153-.008 35.105-.041c12.322-.014 23.554-.297 35.794 1.688 53.111 8.689 98.525 46.538 116.158 97.467 10.037 28.994 7.527 58.275 7.526 88.457l-.015 109.097.006 120.5.018 35.551c.001 13.343.228 23.856-1.849 37.196-8.409 53.985-47.946 99.711-99.46 117.2-10.626 3.607-21.997 5.344-33.138 6.789-26.276 1.289-56.573.535-83.176.524l-137.507.007-80.165.06c-20.41.005-43.127 1.072-62.916-2.777-61.955-11.944-112.962-67.914-118.43-130.932-1.868-21.536-.91-45.612-.91-67.475l-.005-118.109-.014-104.932c-.005-22.093-1.562-49.337 2.44-70.77 12.419-66.522 65.557-112.782 132.371-119.271m268.92 463.724c-5.863 11.247-10.449 18.829-21.565 25.785-13.524 8.462-27.912 6.837-43.279 6.825l.113-219.419c-.096-52.718-.527-106.439.055-159.101 20.216-.184 35.457-1.732 51.432 13.612 9.318 8.95 13.883 21.05 13.764 33.929-.297 32.105-.105 64.242-.189 96.361l.034 29.411c.018 4.92-.156 11.725.255 16.524l-.688.082c-12.881 1.451-32.238-3.879-41.433 6.302-9.839 10.896 3.402 25.219 9.654 34.615l19.41 29.196c10.176 15.333 20.246 30.744 30.392 46.079 5.487 8.293 17.065 8.923 23.463 1.438 3.824-4.474 7.115-9.907 10.352-14.851l13.936-21.203 21.913-33.306c5.635-8.462 20.223-25.741 17.608-35.856-4.387-16.969-26.387-11.349-39.277-12.309-2.084-.16-5.126.046-7.177.153.401-30.945.154-62.27.145-93.241l.019-31.256c.03-14.608.572-28.011-3.003-42.347-4.496-18.029-12.95-34.184-25.916-47.463-21.721-22.244-47.188-33.556-78.232-33.844l-68.888-.046c-5.065-.003-27.08-.316-30.254.218-30.901 2.728-55.442 15.031-75.635 38.786-26.523 31.201-23.21 62.723-23.214 100.45l.005 91.229.011 111.943-.019 34.161c-.002 8.418-.229 16.934.561 25.323 2.515 26.708 16.638 51.459 37.306 68.333 11.924 9.735 26.133 16.978 41.108 20.598a121.3 121.3 0 0 0 20.219 3.14c19.149 1.313 38.855.381 58.088.371 17.103-.009 35.087 1.138 52.087-.715 28.999-3.161 55.32-17.663 73.57-40.414 8.712-10.86 14.657-23.272 18.451-36.617.896-3.153 2.193-7.133 1.906-10.437-.053-.615-.194-1.591-.733-1.954-2.616-1.762-50.329-1.195-56.355-.485" id="path2"></path>
  <path fill="#FDA051" d="M459.357 323.176c5.894-.523 16.257-.233 22.591-.311l.054 378.648c-15.312.09-26.612 1.745-40.422-4.881-16.16-7.911-23.772-24.043-23.84-41.354-.06-15.198-.007-30.307.049-45.501l.122-96.872-.009-97.16-.158-32.965c-.012-21.441-.204-36.751 18.765-51.103 7.317-5.536 13.863-7.32 22.848-8.501" id="path3"></path>
</svg></svg></g></g></svg>