<svg xmlns="http://www.w3.org/2000/svg" version="1.1" xmlns:xlink="http://www.w3.org/1999/xlink" width="1024" height="1024"><svg xmlns="http://www.w3.org/2000/svg" xmlns:xlink="http://www.w3.org/1999/xlink" width="1024" height="1024" viewBox="0 0 1024 1024"><defs><linearGradient id="SvgjsLinearGradient1006" gradientUnits="userSpaceOnUse" x1="762.69861" y1="786.98053" x2="259.67453" y2="235.2675"><stop offset="0" stop-color="#FA8449"></stop><stop offset="1" stop-color="#FFB056"></stop></linearGradient></defs><path fill="url(#gradient_0)" d="M337.299 205.21C342.326 204.472 350.9 204.864 356.114 204.867L390.347 204.933L496.313 204.989L625.466 204.981L660.571 204.94C672.893 204.926 684.125 204.643 696.365 206.628C749.476 215.317 794.89 253.166 812.523 304.095C822.56 333.089 820.05 362.37 820.049 392.552L820.034 501.649L820.04 622.149L820.058 657.7C820.059 671.043 820.286 681.556 818.209 694.896C809.8 748.881 770.263 794.607 718.749 812.096C708.123 815.703 696.752 817.44 685.611 818.885C659.335 820.174 629.038 819.42 602.435 819.409L464.928 819.416L384.763 819.476C364.353 819.481 341.636 820.548 321.847 816.699C259.892 804.755 208.885 748.785 203.417 685.767C201.549 664.231 202.507 640.155 202.507 618.292L202.502 500.183L202.488 395.251C202.483 373.158 200.926 345.914 204.928 324.481C217.347 257.959 270.485 211.699 337.299 205.21ZM606.219 668.934C600.356 680.181 595.77 687.763 584.654 694.719C571.13 703.181 556.742 701.556 541.375 701.544L541.488 482.125C541.392 429.407 540.961 375.686 541.543 323.024C561.759 322.84 577 321.292 592.975 336.636C602.293 345.586 606.858 357.686 606.739 370.565C606.442 402.67 606.634 434.807 606.55 466.926L606.584 496.337C606.602 501.257 606.428 508.062 606.839 512.861L606.151 512.943C593.27 514.394 573.913 509.064 564.718 519.245C554.879 530.141 568.12 544.464 574.372 553.86L593.782 583.056C603.958 598.389 614.028 613.8 624.174 629.135C629.661 637.428 641.239 638.058 647.637 630.573C651.461 626.099 654.752 620.666 657.989 615.722L671.925 594.519L693.838 561.213C699.473 552.751 714.061 535.472 711.446 525.357C707.059 508.388 685.059 514.008 672.169 513.048C670.085 512.888 667.043 513.094 664.992 513.201C665.393 482.256 665.146 450.931 665.137 419.96L665.156 388.704C665.186 374.096 665.728 360.693 662.153 346.357C657.657 328.328 649.203 312.173 636.237 298.894C614.516 276.65 589.049 265.338 558.005 265.05L489.117 265.004C484.052 265.001 462.037 264.688 458.863 265.222C427.962 267.95 403.421 280.253 383.228 304.008C356.705 335.209 360.018 366.731 360.014 404.458L360.019 495.687L360.03 607.63L360.011 641.791C360.009 650.209 359.782 658.725 360.572 667.114C363.087 693.822 377.21 718.573 397.878 735.447C409.802 745.182 424.011 752.425 438.986 756.045C445.638 757.653 452.378 758.716 459.205 759.185C478.354 760.498 498.06 759.566 517.293 759.556C534.396 759.547 552.38 760.694 569.38 758.841C598.379 755.68 624.7 741.178 642.95 718.427C651.662 707.567 657.607 695.155 661.401 681.81C662.297 678.657 663.594 674.677 663.307 671.373C663.254 670.758 663.113 669.782 662.574 669.419C659.958 667.657 612.245 668.224 606.219 668.934Z"></path><path fill="#FDA051" d="M459.357 323.176C465.251 322.653 475.614 322.943 481.948 322.865L482.002 701.513C466.69 701.603 455.39 703.258 441.58 696.632C425.42 688.721 417.808 672.589 417.74 655.278C417.68 640.08 417.733 624.971 417.789 609.777L417.911 512.905L417.902 415.745L417.744 382.78C417.732 361.339 417.54 346.029 436.509 331.677C443.826 326.141 450.372 324.357 459.357 323.176Z"></path></svg><style>@media (prefers-color-scheme: light) { :root { filter: none; } }
@media (prefers-color-scheme: dark) { :root { filter: none; } }
</style></svg>